# xmcd
#
# Track frame offsets: 
#        150
#        27701
#        44715
#        68512
#        80737
#        98410
#        120334
#        144453
#        159534
#        179164
#        203271
#        234684
#
# Disc length: 3376 seconds
#
# Revision: 6
# Processed by: cddbd v1.5.2PL0 Copyright (c) Steve Scherf et al.
# Submitted via: ExactAudioCopyFreeDBPlugin 1.0
#
DISCID=a10d2e0c
DTITLE=Seasick Steve - Sonic Soul Surfer
DYEAR=2015
DGENRE=Blues-Rock
TTITLE0=Roy's Gang
TTITLE1=Bring It On
TTITLE2=Dog Gonna Play
TTITLE3=In Peaceful Dreams
TTITLE4=Summertime Boy
TTITLE5=Swamp Dog
TTITLE6=Sonic Soul Boogie
TTITLE7=Right On Time
TTITLE8=Barracuda '68
TTITLE9=We Be Moving
TTITLE10=Your Name
TTITLE11=Heart Full Of Scars
EXTD=Location:  - UPC: 602547199157 - Catalogue number: DSRCD0036J - Labe
EXTD=l: Caroline Records - ASIN: B00V43SFMW - Release Date: 2015 03 23 - 
EXTD=Discogs: a939458,m814410,r6820083 - MUSICBRAINZ_ALBUMID: 9fde3a58-
EXTD=4a0e-4a87-9149-c6af88846b6e - AMG:mn0001939829,mw0002809397 - YEAR:
EXTD=2015
EXTT0=
EXTT1=
EXTT2=
EXTT3=
EXTT4=
EXTT5=
EXTT6=
EXTT7=
EXTT8=
EXTT9=
EXTT10=
EXTT11=
PLAYORDER=
